<?xml version="1.0" encoding="UTF-8"?>
<svg id="Layer_1" data-name="Layer 1" xmlns="http://www.w3.org/2000/svg" xmlns:xlink="http://www.w3.org/1999/xlink" viewBox="0 0 1558.64 813.44">
  <defs>
    <style>
      .cls-1, .cls-2 {
        stroke-dasharray: 10;
      }

      .cls-1, .cls-2, .cls-3, .cls-4, .cls-5, .cls-6 {
        stroke-miterlimit: 10;
      }

      .cls-1, .cls-2, .cls-4, .cls-5, .cls-6 {
        stroke: #000;
        stroke-width: 5px;
      }

      .cls-1, .cls-7, .cls-8, .cls-9 {
        fill: #fff;
      }

      .cls-2, .cls-4, .cls-5, .cls-6 {
        fill: none;
      }

      .cls-10 {
        fill: #b0d6fa;
      }

      .cls-8 {
        font-family: Poppins-Light, Poppins;
        font-size: 13.83px;
        font-weight: 300;
      }

      .cls-11 {
        filter: url(#drop-shadow-1);
      }

      .cls-9 {
        font-family: Poppins-Medium, Poppins;
        font-size: 46.1px;
        font-weight: 500;
      }

      .cls-3 {
        stroke: #fff;
        stroke-width: 3.64px;
      }

      .cls-3, .cls-12 {
        fill: #15212c;
      }

      .cls-5 {
        stroke-dasharray: 9.59 9.59;
      }

      .cls-6 {
        stroke-dasharray: 9.9 9.9;
      }
    </style>
    <filter id="drop-shadow-1" x="654.45" y="376.4" width="257.22" height="66.72" filterUnits="userSpaceOnUse">
      <feOffset dx="2.49" dy="2.49"/>
      <feGaussianBlur result="blur" stdDeviation="0"/>
      <feFlood flood-color="#082a44" flood-opacity=".6"/>
      <feComposite in2="blur" operator="in"/>
      <feComposite in="SourceGraphic"/>
    </filter>
  </defs>
  <g>
    <rect class="cls-12" x="1.35" y="574.8" width="397.29" height="237.29" rx="6.77" ry="6.77"/>
    <path class="cls-7" d="M391.88,576.15c2.98,0,5.41,2.43,5.41,5.41v223.76c0,2.98-2.43,5.41-5.41,5.41H8.12c-2.98,0-5.41-2.43-5.41-5.41v-223.76c0-2.98,2.43-5.41,5.41-5.41h383.76M391.88,573.44H8.12c-4.47,0-8.12,3.65-8.12,8.12v223.76c0,4.46,3.65,8.12,8.12,8.12h383.76c4.47,0,8.12-3.65,8.12-8.12v-223.76c0-4.47-3.65-8.12-8.12-8.12h0Z"/>
  </g>
  <g>
    <text class="cls-8" transform="translate(45.36 737.24) scale(.97 1)"><tspan x="0" y="0">Beyond its nutritional value, food plays a </tspan><tspan x="0" y="16.6">significant cultural and social role, influencing </tspan><tspan x="0" y="33.2">traditions, lifestyles, and economies worldwide.</tspan></text>
    <text class="cls-9" transform="translate(45.36 704.53) scale(.97 1)"><tspan x="0" y="0">Food</tspan></text>
    <g>
      <path class="cls-7" d="M62.09,623.57c.86-.28,2.07.33,2.74.27s1.51-1.1,2.89-1.1c.99,0,2.33.93,2.83.8,1.09-.29,2.99-4,4.5-4.04,1.36-.03,2.37,2.1,2.76,3.26,1.55-.77,4.69-1.36,6.13-.24.93.73.76,3.51.96,3.73.22.24,2.99.07,4.13,2.09.28.5.52,1.88.6,1.95.11.1,1.7.12,2.3.46,1.95,1.09.66,3.96.88,5.34.07.41.67.76.73,1.66s-.5,2.05-.29,2.92c.07.28.82.33,1.18.73.3.33.95,1.83.95,2.29,0,1.33-1.91,1.75-1.85,1.88.37.91,1.27-.01,1.73-.11,1.27-.26,2.68-.68,3.36.8,1.54,3.3-1.48,3.41-3.78,3.77,1.11,1.62,2.35.36,2.03,3.02-.49,4.04-5.51.68-8.06,1.02.2,2.04-1.37,3.84-3.3,4.02-10.48-.64-22.11.96-32.46.04-7.18-.64-10.3-8.84-5.1-14.19.61-7.43-.8-16.21,0-23.48.36-3.25,3.15-3.16,3.38-3.81.39-1.16-.84-1.59-1-2.68s-.2-4.35.66-4.96c.72-.51,7.53-.49,8.22.12.76.68.72,4.55.34,5.46-.28.67-1.2.95-.82,2.06.15.43,1.74.79,2.34,1.37.22.22,1.04,1.47,1.04,1.63v3.91ZM57.9,613.85c-.12-.74.27-3.02-.25-3.39-.3-.21-4.98-.21-5.27,0-.52.37-.13,2.64-.25,3.39h5.76ZM56.85,615.47h-3.67v1.62h3.67v-1.62ZM49.51,622.49h5.37c.68,0,.58,1.62.39,1.62h-5.37s-.39.38-.39.4v8.64s.37.4.39.4h6.81c.95,0,.89-2.38,1.04-2.98.23-.93,1.1-1.39,1.32-1.88.25-.57.07-1.28.25-1.91.26-.96,1.13-1.59.94-2.68-1.62.7-2.93-1.1-1.39-1.57,1.27-.38,2.09.73,1.63-1.79-.18-.97-1-1.87-1.96-2.02-1.09-.18-6.26-.19-7.26.04-1.58.37-1.97,2.27-1.76,3.72ZM73.35,626.81c.06-.07-.14-.96.24-1.24.64-.46,2.29.53,2.79-1.19.22-.77-.39-2.48-1.12-2.67s-3.54,2.56-3.7,3.13c-.43,1.49,1.5,2.28,1.79,1.97ZM82.96,626.73c.16-.46.19-2.27-.04-2.63-.63-.98-3.38-.27-4.2.28-.73.49-3.22,3.27-1.56,3.53,1.51.23,2.29-2.67,3.54-1.78,1.03.73-1.58,2.42-1.58,2.98,0,.8,1.93.04,2.35-.28.16-.12,1.45-1.97,1.49-2.09ZM69.61,625.26c-.25-.3-1.47-.85-1.89-.85-1.33,0-1.89,1.44-2.4,1.54-.68.13-1.63-1.37-3.37-.23-1.77,1.15-.64,2.78-1.03,3.52-.18.34-.77.5-1.04.83-.73.88-.82,1.9-.41,2.95.87.11.42-.91,1.05-1.48s2.93-.53,3.77-.4c.67.11,1.36.8,1.85.78.53-.02,1.96-1.01,3.01-.53.07-.56-.4-1.31-.96-1.3-.65.02-1.5,1.84-1.89.59-.87-2.83,5.16-2.85,3.64.44.44-.09,1.86.16,2.07-.03.08-.08.6-1.87.52-2.2-.26-1.01-1.75-.98-2.18-1.56-.36-.49-.33-1.58-.74-2.07ZM73.87,627.61c.19-.38-.17-.72-.26-.54-.19.38.17.72.26.54ZM88,630.83c-.13-2.75-2.89-3.61-4.7-1.73l1.57,1.62c.71,2.4,1.62.41,3.13.11ZM78.32,631.12c-.81-2.53-3.91-2.52-4.71,0h4.71ZM81.6,637.6h-25.8c.08.59-.19,1.71.12,2.17.17.25.77.27,1.08.52.25.2.28.75.56.82,1.33.34,2.97-.4,4.52.68.5.34.62.92.99,1.21,1.29,1.04,2.17,1.31,3.16,2.87.26.41.76,1.9.85,1.96.51.38,2.69-1.59,3.08-.34.08.25.13.94,0,1.14-.15.24-4.49,1.49-4.65,1.68-.25.29.28,2.15-.27,2.55-1.42,1.01-.99-1.43-1.98-1.52-.52-.04-2.91,1.06-3.28,1.49-1.15,1.35-.12,3.65,1.45,3.65h9.04c.06-.86-.96-3.5.44-3.45s.7,3.12,1.56,3.42c.36.12,5.03.12,5.43,0,.93-.3-.63-2.53.83-2.68,1.8-.18.11,3.78,3.36,2.68,1.1-.37-.75-3.33.83-3.48,1.76-.18.43,3.77,2.29,3.49,2.49-.38,1.67-3.14,1.42-4.87-.23-1.59-.75-5.21-1.23-6.56s-1.32-1.63-2.63-1.37c-.6.12-5.81,2.07-5.99,2.33-.15.22.81,2.91-.16,3.21-1.35.42-1.2-2.25-1.44-2.42-.3-.22-1.98.94-2.11-.41-.07-.74.29-.8.8-1.08,1.14-.61,7.99-3.28,9.04-3.38.77-.07,1.59,0,2.3.33.81.39,1.68,2.14,2.11,2.07.81-.83,3.13-1.52,3.7-2.42s.61-3.2.67-4.3h-6.42c-.32,0-.53-.98-.37-1.33l1.55-.29c.38-2.27-1.66-1.94-2.3-2.49-.51-.43-.52-4.14-3.21-2.5,1.58,1.62.12,3.17.27,4.58.05.45,1.52,1.69.39,2.03ZM91.12,632.24c-.52-.34-3.36-.08-3.78.77-.15.3.39,1.29.45,1.32.2.12,1.55-.69,1.79.17.17.61-.62.89-.52,1.48.58-.07,1.54.25,1.97-.27s.57-3.17.09-3.47ZM66.8,635.98c-.16-2.12-2.09-3.49-4.06-3.46-2.18.04-1.5,3.19-1.14,3.42.16.1,1.47.08,1.52.03.14-.14-.27-1.28.67-1.36,1.05-.09,1.57,1.92,3.01,1.37ZM79.77,632.74h-11.79c-.76,0,.19,2.84.64,3.11.75.44,2.71-.95,3.03-.96.75,0,.83,1.07,1.06,1.11.53.07.88-.55,1.25-.52s.73.62,1.22.5c.51-2.83,1.94.89,3.94-.13.51-.26,1.46-2.86.65-3.11ZM59.99,635.98c.34-.31-1.36-1.58-1.71-1.63-.42-.07-.86.93-.91,1.23-.17.82,2.12.24,2.62.41ZM55.8,635.17h-6.29v7.83l1.83-1.48c1.02-.37,2.07-.48,3.14-.41-.07-1.25-.55-2.91-.21-4.13.24-.84,1.52-.87,1.52-1.81ZM61.04,643c-.87-.94-3.77.23-4.58.23-1.23,0-2.5-1.08-4.26-.31-1.23.54.36.6.73.73,1.7.63-.04,1.73.26,2.03.9.12,2.76-1.62,3.27-1.62.59,0,2.27,1.82,3.27,1.62.1-.59-.68-.82-.51-1.45.22-.8,2.46-.55,1.82-1.25ZM93.49,643.78c.21-.39-.06-1.07-.59-1.02-.32.03-5.4,3.19-5.55,3.48l.97,5.9c.92-.1,6.54,1.37,6.77,1.11.04-.04.03-1.02-.01-1.06-.27-.31-5.98-.88-6.25-1.79-.21-.72.33-.82.81-1.01,1.1-.44,7.29-1.16,7.53-1.55.08-.14-.02-.55.02-.79-.4-.42-6.65,1.28-7.77,1.33-.98.05-1.15-.76-.63-1.49s4.54-2.82,4.7-3.11ZM53.57,656.5c1.45.16,3.11-.11,4.58,0-1.76-5.91,3.5-6.12,7.31-7.85.1-1.22-1.85-3.95-2.99-4-1.66-.08-.1,1.31-1.2,2.26-1.56,1.36-3.56-.68-4.83-.68-.97,0-4.08,2.18-4.98.56-.44-.79.28-3.94-2.49-1.23-4.35,4.26-.77,10.36,4.59,10.94Z"/>
      <path class="cls-12" d="M81.6,637.6c1.13-.33-.35-1.58-.39-2.03-.14-1.41,1.32-2.97-.27-4.58,2.69-1.64,2.7,2.06,3.21,2.5.64.54,2.68.22,2.3,2.49l-1.55.29c-.16.35.05,1.33.37,1.33h6.42c-.06,1.1-.09,3.4-.67,4.3s-2.89,1.59-3.7,2.42c-.43.07-1.3-1.68-2.11-2.07-.71-.34-1.52-.4-2.3-.33-1.05.09-7.9,2.76-9.04,3.38-.51.27-.87.34-.8,1.08.12,1.35,1.81.2,2.11.41.24.17.09,2.84,1.44,2.42.97-.3,0-2.99.16-3.21.19-.27,5.39-2.21,5.99-2.33,1.31-.27,2.14,0,2.63,1.37s1,4.97,1.23,6.56c.25,1.73,1.07,4.49-1.42,4.87-1.86.28-.53-3.66-2.29-3.49-1.58.16.28,3.11-.83,3.48-3.25,1.1-1.56-2.85-3.36-2.68-1.46.14.1,2.38-.83,2.68-.39.13-5.07.13-5.43,0-.86-.3-.18-3.37-1.56-3.42s-.39,2.59-.44,3.45h-9.04c-1.57,0-2.6-2.3-1.45-3.65.37-.44,2.76-1.54,3.28-1.49,1,.09.57,2.53,1.98,1.52.56-.4.03-2.26.27-2.55.16-.19,4.5-1.44,4.65-1.68.12-.19.07-.88,0-1.14-.4-1.24-2.57.72-3.08.34-.08-.06-.59-1.55-.85-1.96-1-1.57-1.87-1.83-3.16-2.87-.37-.3-.49-.87-.99-1.21-1.56-1.08-3.2-.33-4.52-.68-.27-.07-.31-.62-.56-.82-.31-.25-.91-.27-1.08-.52-.31-.46-.04-1.58-.12-2.17h25.8Z"/>
      <path class="cls-12" d="M49.51,622.49c-.22-1.46.18-3.36,1.76-3.72,1.01-.23,6.17-.22,7.26-.04.97.16,1.79,1.05,1.96,2.02.45,2.53-.37,1.41-1.63,1.79-1.54.46-.23,2.27,1.39,1.57.2,1.09-.67,1.72-.94,2.68-.17.63,0,1.33-.25,1.91-.21.49-1.08.96-1.32,1.88-.15.6-.08,2.98-1.04,2.98h-6.81s-.39-.38-.39-.4v-8.64s.37-.4.39-.4h5.37c.19,0,.29-1.62-.39-1.62h-5.37Z"/>
      <path class="cls-12" d="M53.57,656.5c-5.37-.58-8.94-6.68-4.59-10.94,2.77-2.72,2.05.44,2.49,1.23.9,1.62,4.01-.56,4.98-.56,1.28,0,3.28,2.04,4.83.68,1.09-.96-.46-2.34,1.2-2.26,1.13.05,3.09,2.79,2.99,4-3.82,1.73-9.07,1.94-7.31,7.85-1.47-.11-3.14.16-4.58,0Z"/>
      <path class="cls-12" d="M69.61,625.26c.41.5.38,1.58.74,2.07.43.58,1.92.55,2.18,1.56.08.32-.43,2.12-.52,2.2-.2.19-1.63-.06-2.07.03,1.52-3.29-4.51-3.27-3.64-.44.39,1.25,1.24-.57,1.89-.59.55-.02,1.02.74.96,1.3-1.05-.48-2.47.51-3.01.53-.49.02-1.18-.67-1.85-.78-.84-.14-3.15-.16-3.77.4s-.18,1.59-1.05,1.48c-.41-1.05-.32-2.07.41-2.95.27-.33.87-.49,1.04-.83.38-.73-.75-2.36,1.03-3.52,1.75-1.13,2.69.37,3.37.23.5-.1,1.07-1.55,2.4-1.54.41,0,1.64.55,1.89.85ZM66.26,628.4c.84-1.19-2.23-2.97-3.79-1.07-.64.78-.97,2.77.27,2.46.91-.23.6-1.41,1.36-1.6.5-.12,1.7.87,2.16.22Z"/>
      <path class="cls-12" d="M55.8,635.17c0,.94-1.28.98-1.52,1.81-.35,1.22.14,2.88.21,4.13-1.08-.07-2.12.04-3.14.41l-1.83,1.48v-7.83h6.29Z"/>
      <path class="cls-12" d="M93.49,643.78c-.16.29-4.19,2.4-4.7,3.11s-.35,1.53.63,1.49c1.12-.05,7.37-1.75,7.77-1.33-.04.23.07.65-.02.79-.25.4-6.43,1.11-7.53,1.55-.48.19-1.03.29-.81,1.01.27.91,5.98,1.49,6.25,1.79.04.05.05,1.02.01,1.06-.24.26-5.86-1.22-6.77-1.11l-.97-5.9c.15-.3,5.23-3.45,5.55-3.48.52-.05.8.63.59,1.02Z"/>
      <path class="cls-12" d="M79.77,632.74c.81.25-.14,2.84-.65,3.11-2,1.02-3.42-2.7-3.94.13-.49.12-.85-.47-1.22-.5s-.72.59-1.25.52c-.24-.03-.32-1.11-1.06-1.11-.32,0-2.28,1.4-3.03.96-.45-.27-1.4-3.11-.64-3.11h11.79ZM70.99,633.28c-.72.03-2.64-.36-2.32.9s3.01,1.06,2.32-.9ZM77.2,633.34c-.28.09-.79.53-.71.88,2.52,2.31,3.9-1.88.71-.88Z"/>
      <path class="cls-12" d="M82.96,626.73c-.04.12-1.34,1.97-1.49,2.09-.42.32-2.34,1.08-2.35.28,0-.56,2.61-2.24,1.58-2.98-1.25-.89-2.03,2.01-3.54,1.78-1.66-.26.83-3.04,1.56-3.53.83-.55,3.58-1.26,4.2-.28.23.36.2,2.17.04,2.63Z"/>
      <path class="cls-12" d="M57.9,613.85h-5.76c.12-.75-.27-3.02.25-3.39.29-.21,4.97-.21,5.27,0,.52.37.13,2.66.25,3.39Z"/>
      <path class="cls-12" d="M61.04,643c.64.69-1.6.45-1.82,1.25-.17.63.61.86.51,1.45-1,.21-2.68-1.61-3.27-1.62-.51,0-2.37,1.74-3.27,1.62-.3-.3,1.44-1.41-.26-2.03-.37-.13-1.96-.19-.73-.73,1.75-.77,3.03.31,4.26.31.81,0,3.71-1.18,4.58-.23Z"/>
      <path class="cls-12" d="M66.8,635.98c-1.44.56-1.95-1.46-3.01-1.37-.94.08-.53,1.21-.67,1.36-.05.06-1.36.08-1.52-.03-.36-.23-1.04-3.38,1.14-3.42,1.97-.03,3.91,1.34,4.06,3.46Z"/>
      <path class="cls-12" d="M73.35,626.81c-.29.31-2.22-.48-1.79-1.97.17-.57,2.95-3.33,3.7-3.13s1.35,1.9,1.12,2.67c-.5,1.72-2.15.72-2.79,1.19-.38.28-.18,1.17-.24,1.24ZM74.31,622.8c-.63.19-1.4,1.65-.57,2.12,1.47.08,2.52-2.71.57-2.12Z"/>
      <path class="cls-12" d="M88,630.83c-1.5.29-2.42,2.28-3.13-.11l-1.57-1.62c1.81-1.88,4.57-1.02,4.7,1.73Z"/>
      <path class="cls-12" d="M91.12,632.24c.48.31.35,2.94-.09,3.47s-1.39.2-1.97.27c-.1-.58.69-.87.52-1.48-.24-.86-1.59-.05-1.79-.17-.06-.03-.61-1.02-.45-1.32.42-.85,3.26-1.11,3.78-.77Z"/>
      <path class="cls-12" d="M78.32,631.12h-4.71c.8-2.52,3.91-2.53,4.71,0Z"/>
      <rect class="cls-12" x="53.18" y="615.47" width="3.67" height="1.62"/>
      <path class="cls-12" d="M59.99,635.98c-.5-.17-2.79.42-2.62-.41.06-.29.49-1.29.91-1.23.34.06,2.05,1.32,1.71,1.63Z"/>
      <path class="cls-12" d="M73.87,627.61c-.09.18-.44-.16-.26-.54.09-.18.44.16.26.54Z"/>
      <path class="cls-7" d="M66.26,628.4c-.46.66-1.66-.34-2.16-.22-.76.19-.46,1.37-1.36,1.6-1.25.32-.92-1.68-.27-2.46,1.56-1.89,4.63-.12,3.79,1.07Z"/>
      <path class="cls-7" d="M70.99,633.28c.68,1.96-2.02,2.12-2.32.9s1.6-.87,2.32-.9Z"/>
      <path class="cls-7" d="M77.2,633.34c3.19-1,1.81,3.19-.71.88-.08-.35.42-.79.71-.88Z"/>
      <path class="cls-7" d="M74.31,622.8c1.95-.59.9,2.2-.57,2.12-.84-.47-.06-1.93.57-2.12Z"/>
    </g>
  </g>
  <g>
    <rect class="cls-12" x="1.35" y="288.07" width="397.29" height="237.29" rx="6.77" ry="6.77"/>
    <path class="cls-7" d="M391.88,289.43c2.98,0,5.41,2.43,5.41,5.41v223.76c0,2.98-2.43,5.41-5.41,5.41H8.12c-2.98,0-5.41-2.43-5.41-5.41v-223.76c0-2.98,2.43-5.41,5.41-5.41h383.76M391.88,286.72H8.12c-4.47,0-8.12,3.65-8.12,8.12v223.76c0,4.47,3.65,8.12,8.12,8.12h383.76c4.47,0,8.12-3.65,8.12-8.12v-223.76c0-4.47-3.65-8.12-8.12-8.12h0Z"/>
  </g>
  <g>
    <text class="cls-8" transform="translate(41.39 445.74) scale(.97 1)"><tspan x="0" y="0">Industrial refers to the sector of an economy </tspan><tspan x="0" y="16.6">characterized by the large-scale production of </tspan><tspan x="0" y="33.2">goods and services using advanced machinery</tspan><tspan x="0" y="49.79">and technology.</tspan></text>
    <text class="cls-9" transform="translate(41.39 413.03) scale(.97 1)"><tspan x="0" y="0">Industrial</tspan></text>
    <g>
      <path class="cls-7" d="M95.06,338.05v24.61c-.14.19-.21.41-.49.4h-5.31c-.27-.05-.39-.29-.43-.54-.15-1.69.19-3.71,0-5.36-.05-.39-.34-.51-.68-.54-2.08-.18-4.41.14-6.52,0-.39.04-.61.17-.68.6-.15,1.69.18,3.71,0,5.36-.04.32-.22.37-.44.53h-.05c-.06-.09-.21-.06-.3-.06-6.05-.08-12.11.06-18.16,0-.2.02-.33-.18-.41-.34l-.03-18.32c-.02-.31.24-.5.52-.53,1.45-.18,3.19.18,4.66-.05,2.99-2.02,5.92-4.17,8.93-6.15.31-.05.56.07.67.38l.02,4.56c.07.48.55.71.94.42l7.69-5.34c.34-.08.65.06.71.42l.02,4.56c.09.37.48.62.84.42l7.72-5.37c.39-.15.62.02.81.35ZM64.87,348.68c-.22.04-.44.24-.48.47.08,1.05-.12,2.3,0,3.33.04.32.28.51.57.54.7.07,2.39.08,3.07,0,.47-.06.55-.39.58-.82.05-.74.07-2.1,0-2.82-.04-.45-.18-.65-.63-.71-.96-.11-2.13.07-3.11.01ZM74.34,348.85c-.05-.05-.2-.13-.26-.15-.41-.11-2.7-.1-3.19-.04-.34.04-.55.23-.58.59-.07.75-.08,2.48,0,3.22.03.3.22.5.52.54.67.08,2.39.07,3.07,0,.29-.03.54-.15.57-.48.08-.74.07-2.58,0-3.34-.01-.14-.03-.24-.13-.34ZM76.7,348.68c-.26.06-.45.26-.48.52-.12,1.03.09,2.28,0,3.33.05.32.28.45.57.48.69.07,2.4.08,3.07,0,.31-.04.49-.22.52-.53.1-1.02-.09-2.23,0-3.28-.04-.32-.28-.5-.58-.53-.96-.11-2.13.07-3.11.01ZM82.27,348.85c-.1.1-.12.21-.13.34-.07.76-.08,2.59,0,3.34.04.33.28.45.57.48.69.07,2.4.08,3.07,0,.31-.04.48-.22.52-.54.08-.72.07-2.49,0-3.22-.03-.36-.23-.55-.58-.59-.49-.06-2.79-.07-3.19.04-.07.02-.22.1-.26.15ZM88.53,348.68c-.39.07-.5.31-.53.69-.07.72-.06,2.16,0,2.88.04.46.15.72.63.76.69.07,2.39.08,3.07,0,.26-.03.5-.27.52-.54-.09-1.03.12-2.27,0-3.28-.04-.32-.28-.5-.58-.53-.58-.07-2.56-.08-3.11.01Z"/>
      <path class="cls-7" d="M45.12,363.11h-3.29c-.21-.16-.46-.27-.44-.59v-18.18c.04-.21.27-.45.47-.48,1,.07,2.13-.1,3.12,0,.41.04.54.31.57.71v17.84c-.03.37-.13.53-.44.7Z"/>
      <path class="cls-7" d="M59.9,363.06h-12.82c-.22-.02-.34-.19-.41-.39l-.02-33.16c.47-.85,1.46-1.35,2.32-1.67,2.73-1,6.92-.99,9.59.22.66.3,1.39.75,1.76,1.4v33.27c-.09.18-.23.31-.43.34Z"/>
      <path class="cls-7" d="M63.3,311.38c-.07.66-.42,1.48-.77,2.03-.01.04.04.03.08.03,1.05-.02,3.79-.74,4.81-1.14,1.21-.48,2.12-1.26,3.03-2.19.02,0,.08.13.08.14v1.07c0,.14-.14.65-.19.82-.67,2.36-2.99,3.75-5.16,4.33-2.73.73-6.07.2-8.09,2.67-.22-.84-.02-1.78.41-2.51.03-.08-.89.12-.97.13-2.35.33-5.03.32-6.67,2.38-.02,0-.08-.13-.08-.14v-1.07c0-.87,1.21-2.36,1.87-2.87,3.15-2.49,7.43-1.3,10.65-4.04.17-.15.78-.82.91-.87.06-.03.11.04.11.06,0,.37.04.83,0,1.19Z"/>
      <path class="cls-7" d="M60.4,326.2c-.61-.78-1.47-1.25-2.38-1.58-2.19-.79-5-.86-7.27-.43-1.47.28-3.06.8-4.04,2.01v-3.19c0-.3.44-.87.66-1.07,2.42-2.27,9.86-2.25,12.32-.06.22.19.71.78.71,1.07v3.25Z"/>
    </g>
  </g>
  <g>
    <rect class="cls-12" x="1159.99" y="288.07" width="397.29" height="237.29" rx="6.76" ry="6.76"/>
    <path class="cls-7" d="M1550.52,289.43c2.98,0,5.41,2.43,5.41,5.41v223.76c0,2.98-2.43,5.41-5.41,5.41h-383.76c-2.98,0-5.41-2.43-5.41-5.41v-223.76c0-2.98,2.43-5.41,5.41-5.41h383.76M1550.52,286.72h-383.76c-4.47,0-8.12,3.65-8.12,8.12v223.76c0,4.47,3.65,8.12,8.12,8.12h383.76c4.46,0,8.12-3.65,8.12-8.12v-223.76c0-4.47-3.65-8.12-8.12-8.12h0Z"/>
  </g>
  <g>
    <text class="cls-8" transform="translate(1179.33 456.58) scale(.97 1)"><tspan x="0" y="0">A household is a fundamental social unit typically </tspan><tspan x="0" y="16.6">consisting of individuals who live together in a shared </tspan><tspan x="0" y="33.2">dwelling and manage their domestic life collectively.</tspan></text>
    <text class="cls-9" transform="translate(1179.33 423.87) scale(.97 1)"><tspan x="0" y="0">Household</tspan></text>
    <g>
      <path class="cls-7" d="M1216.59,351.85c1.31-.29,1.53,1.56.51,1.79-1.31.29-1.53-1.56-.51-1.79Z"/>
      <path class="cls-7" d="M1228.19,362.89c1.31-.29,1.53,1.56.51,1.79-1.31.29-1.53-1.56-.51-1.79Z"/>
      <path class="cls-7" d="M1211.49,317.79v5.52h14.67c.37,0,1.11-.75,1.25-1.12.2-.53.22-2.35.11-2.93-.15-.83-.92-1.39-1.7-1.47-2.9-.28-6.2.22-9.15,0-1.03-.17-.97-1.77.1-1.84,3,.2,6.31-.26,9.27,0,3.06.27,3.51,3.2,3.29,5.82-.16,1.9-1.71,3.4-3.57,3.39v5.52h2.06c.23,0,.57.5.61.75.2,1.33-.1,3.18,0,4.59.29,3.95,2.98,5.39,3.98,8.77,1.18,3.99.11,9.44.47,13.65-.18,1.18-1.78.75-1.78.12v-2.82c-1.72,1.52-4.43.38-4.47-2.01-.04-2.45,2.68-3.69,4.47-2.13v-2.59c0-.11-1.56-1.16-1.78-1.27-3.08-1.53-4.19,1.21-6.31,1.21h-1.73v16.68h1.79v-14.2c0-.07.3-.45.39-.52.58-.44,1.25-.03,1.39.64l-.02,15.27c-.15.5-.45.62-.92.66-.8.07-2.94.11-3.68-.01-.25-.04-.73-.39-.73-.63v-3.74c-2.1,1.68-5.1-.35-4.3-2.99.57-1.85,2.86-2.52,4.3-1.26v-10.52c-2.08-1.7-4.43-1.02-6.25.69v20.3h17.85v-7.65c0-.63,1.6-1.06,1.78.12-.21,2.68.31,5.89,0,8.51-.04.39-.19.65-.55.81l-20.04.05c-.27.07-.83-.42-.83-.64v-3.05h-2.23c.02,1.1,1.25,3.56-.5,3.69l-18.06-.03c-1.25-.29-.22-2.77-.19-3.66h-3.85c-1.87,0-3.98-2.27-4.44-4.05-.26-1.01-.34-4.27-.19-5.32.15-1.02,1.65-1.06,1.78.11.24,2.09-.63,4.71,1.06,6.38.34.33,1.58,1.04,2.01,1.04h3.96c.22-2.22-.42-4.83,2.31-5.49,4.22.25,8.99-.42,13.14-.03,1.14.11,2.25.99,2.46,2.18.18,1.04-.06,2.26.16,3.34h2.57v-14.72h-2.68v4.89c0,.49-2.1,1.57-2.59,1.7-1.78.49-2.11-.01-3.63-.46-2.2-.65-3.28,1.52-6.2.18-.34-.16-1.86-1.09-1.86-1.42v-4.89h-10.71v3.97c0,.55-1.25.97-1.66.22-.34-.62.02-4.04-.12-4.18-2.05,0-3.43-2.42-2.28-4.25.94-1.51,2.54-1.29,4.07-1.27,0-.72.17-1.48.43-2.15.89-2.36,3.28-3.22,1.86-6.48-1.05-2.4-1.72-2.73-1.36-5.78.2-1.75,2.03-4,3.82-4h4.18v-5.52h-1.79v3.05c0,.62-1.53,1.03-1.76-.02-.12-.57-.1-3.35-.03-4,.07-.62.37-.81.95-.87,2.27-.21,4.85.17,7.15,0,.3,0,.55.16.71.42l.12,6.95c3.79.15,5.08,3.72,4.32,7.15-.52,2.35-2.53,3.27-1.25,6.19.4.9,1.88,1.88,1.17,2.82-1.14,1.51-1.91-1.33-2.73-1.45h-12.05c-.22.05-1.14,1.25-1.31,1.54-.38.65-.6,1.39-.65,2.15h26.22c.43-2.81,2.83-4.52,3.65-7.11.21-.65.43-1.59.48-2.27.11-1.42-.19-3.26,0-4.59.04-.26.37-.75.61-.75h2.06v-3.05c0-.8,1.79-.8,1.79,0v3.05h3.57v-5.52h-7.09c-.17,0-.25,1.53-.31,1.86-.9,4.93-3.62,7.88-7.22,10.96-.21.18-.88.82-1.03.89-.82.35-1.52-.33-1.26-1.18,2.46-3.85,4.89-7.65,4.41-12.53-1.51.18-1.96-.28-1.79-1.84h-2.96c-.37,0-.59-.64-.62-.97-.07-.82-.1-3.03.01-3.79.04-.26.37-.75.61-.75h2.96c.02-.58-.17-1.47.47-1.75.36-.16,2.54-.14,3.05-.09,1.49.14.91,1.85.33,1.85h-2.06ZM1209.7,319.63h-1.79v1.84h1.79v-1.84ZM1196.31,321.47h-1.79v5.52h1.79v-5.52ZM1215.06,325.15h-1.79c.09,1.92-.12,3.81-.59,5.66-.13.5-.38.98-.51,1.44-.04.13-.08.34.15.27.12-.04,1.21-1.9,1.34-2.18.79-1.62,1.21-3.37,1.39-5.18ZM1200.78,331.59c-.03-1.54-1.15-2.65-2.62-2.77-3.03-.24-6.39.17-9.46.03-1.22.28-2.22,1.4-2.2,2.73h4.74c.78,0,.78,1.84,0,1.84h-4.63c.05,1.09.88,1.94,1.25,2.91.44,1.16.53,2.3.31,3.53h10.93c-.21-1.23-.12-2.36.31-3.53.37-.98,1.2-1.82,1.25-2.91h-2.85c-.78,0-.78-1.84,0-1.84h2.96ZM1226.66,332.51h-8.93v1.84h8.93v-1.84ZM1219.52,336.19h-1.73s-.13.13-.15.19c.06,4.16-3.76,6.37-4.26,10.28,1.87-1.38,4.04-1.43,6.14-.58v-9.89ZM1223.09,336.19h-1.79v10.81c.58.17,1.21.17,1.79,0v-10.81ZM1226.61,336.19c-.38-.12-1.28.09-1.73,0v9.89c.67-.14,1.27-.48,1.97-.56,1.49-.16,2.95.25,4.17,1.14-.5-3.9-4.32-6.12-4.26-10.28-.02-.07-.09-.17-.15-.19ZM1194.53,347.23h-12.78c-.78,0-.78,1.84,0,1.84h12.78v-1.84ZM1207.02,347.23h-10.71v3.68h10.71v-3.68ZM1211.49,347.23h-2.68v1.84h2.68v-1.84ZM1207.02,352.75h-10.71v2.24c1.89,1.89,3.51-.01,5.53.05,1.62.05,2.43,1.25,4.14.6.36-.14.73-.41,1.04-.65v-2.24ZM1229.09,352.77c-1.03.23-.8,2.09.51,1.79,1.03-.23.8-2.09-.51-1.79ZM1217.71,360.02c-1.13.15-1.09,2.02.3,1.82,1.15-.17.79-1.96-.3-1.82ZM1207.02,363.79c0-.75.17-1.65-.73-1.83-4.35.04-8.74-.12-13.08.08-.66.36-.45,1.12-.47,1.75h14.28ZM1192.07,369.31h1.56c-.43-2.5,2.21-2.49,1.79,0h1.79c-.43-2.5,2.21-2.49,1.79,0h1.79c-.43-2.5,2.21-2.49,1.79,0h1.79c-.43-2.5,2.21-2.49,1.79,0h1.56l-.57-3.66-14.42-.02c-.19.04-.61,3.21-.63,3.69Z"/>
    </g>
  </g>
  <g>
    <rect class="cls-12" x="1159.99" y="1.35" width="397.29" height="237.29" rx="6.76" ry="6.76"/>
    <path class="cls-7" d="M1550.52,2.71c2.98,0,5.41,2.43,5.41,5.41v223.76c0,2.98-2.43,5.41-5.41,5.41h-383.76c-2.98,0-5.41-2.43-5.41-5.41V8.12c0-2.98,2.43-5.41,5.41-5.41h383.76M1550.52,0h-383.76c-4.47,0-8.12,3.65-8.12,8.12v223.76c0,4.47,3.65,8.12,8.12,8.12h383.76c4.46,0,8.12-3.65,8.12-8.12V8.12c0-4.46-3.65-8.12-8.12-8.12h0Z"/>
  </g>
  <g>
    <text class="cls-8" transform="translate(1189.93 167.18) scale(.97 1)"><tspan x="0" y="0">Medical refers to the science and practice of </tspan><tspan x="0" y="16.6">diagnosing, treating, and preventing diseases and </tspan><tspan x="0" y="33.2">injuries to improve and maintain human health.</tspan></text>
    <text class="cls-9" transform="translate(1189.93 134.47) scale(.97 1)"><tspan x="0" y="0">Medical</tspan></text>
    <g>
      <path class="cls-7" d="M1216.02,87.1c-.82.09-2.09.04-2.93,0-.01,0-.12-.11-.25-.11-3.42-.18-6.84-.42-10.26-.66-.54-.19-.73-.6-.55-1.17s1.09-.44,1.58-.43c4.27.13,10.08,1.37,14.09.27,4.37-1.19,8.74-2.94,13.1-4.21.34-.14.62-.35.89-.59,3.41-2.9,6.46-7.13,9.85-10.14,1.37-1.82-.54-4.12-2.52-3.03-3.26,3.02-6.16,6.51-9.45,9.48l-17.68.03c-.75.35-1.67,2.09-2.51,2.06-.6-.03-.86-.67-.63-1.19.25-.56,1.91-1.74,2.3-2.38l.31-.11c3.22-.2,6.79.29,9.96,0,2.69-.24,2.63-3.79.19-4.09-.87-.11-2.51.18-3.22-.03-.59-.18-.68-1.15-.11-1.48.6-.35,3.24-.05,4.05-.03.25-.06,2.17-2.31,2.64-2.68,1.65-1.31,4-.62,4.66,1.4,1.24-1.18,2-2.31,3.9-2.02,1.19.18,1.62.95,2.15,1.88.04.06,0,.21.18.14.44-.19,1.71-1.94,2.41-2.38,3.58-2.26,7.3,2.7,4.36,5.78-3.32,2.99-6.3,7.04-9.64,9.93-.71.61-1.36.95-2.22,1.27-3.81,1.43-8.72,2.95-12.66,4.02-.56.15-1.45.43-1.99.49ZM1224.93,72.74l3.06-3.16c.45-1.35-.68-2.51-1.97-1.81-.25.14-2.2,2.08-2.24,2.24-.05.21.63.89.77,1.22.2.44.32,1.03.37,1.51ZM1225.24,74.9h3.82c1.37-1.65,3.36-3.14,4.67-4.8,1.29-1.64-.37-3.28-1.79-2.16l-6.7,6.96Z"/>
      <path class="cls-7" d="M1189.93,70.26v-.54c.24-.32.37-.49.78-.54,2.03-.25,4.5.21,6.58-.02,3.92-3.64,8.9-4.94,13.52-1.68.49.34,1.6,1.48,1.96,1.65.7.33,2.94-.51,2.94.87,0,.27-.25.71-.5.79s-2.61.07-2.89,0c-.35-.09-1.86-1.55-2.35-1.9-2.52-1.78-5.42-2.14-8.24-.87-1.47.66-2.55,1.92-3.89,2.79-2.24-.23-5.06.31-7.23,0-.4-.05-.43-.28-.68-.54Z"/>
      <path class="cls-7" d="M1189.93,84.83c.25-.13.36-.46.68-.44,2.59.17,5.41-.2,7.97,0,.43.03.97.08,1.19.5.31.62-.14,1.19-.77,1.23-.29.02-.55-.12-.83-.12-2.26-.02-5.31.27-7.45,0-.42-.05-.54-.22-.78-.54v-.65Z"/>
      <path class="cls-7" d="M1215.37,31.87c15.95-1.23,24.19,19.17,12.02,29.86-11.1,9.75-28.03.69-27.08-14.19.09-1.35.76-4.71,1.48-5.81.57-.86,1.6-.47,1.44.62-.11.75-.77,2.05-.97,2.99-1.91,8.86,3.92,17.54,12.67,18.64,11.96,1.5,20.68-11.6,14.87-22.54-4.56-8.59-15.83-10.67-22.95-4.1-.83.76-1.47,1.84-2.41,2.38-.42.03-.88-.47-.85-.9.03-.6,2.11-2.63,2.64-3.09,2.51-2.15,5.87-3.6,9.15-3.86Z"/>
      <path class="cls-7" d="M1220.73,44.68h5.71c.47,0,.66.86.69,1.24.11,1.4.17,4.72-.01,6.04-.04.3-.37.93-.67.93h-5.71v5.88c0,.49-.83.68-1.2.71-1.35.11-4.58.17-5.86-.01-.29-.04-.9-.38-.9-.69v-5.88h-5.71c-.47,0-.66-.86-.69-1.24-.11-1.4-.17-4.72.01-6.04.04-.3.37-.93.67-.93h5.71v-5.88c0-.49.83-.68,1.2-.71,1.35-.11,4.58-.17,5.86.01.29.04.9.38.9.69v5.88ZM1219.16,39.83h-4.82v5.99c0,.11-.37.49-.47.49h-5.82v4.96h5.82c.11,0,.47.38.47.49v5.99h4.82v-5.99c0-.11.37-.49.47-.49h5.82v-4.96h-5.82c-.11,0-.47-.38-.47-.49v-5.99Z"/>
    </g>
  </g>
  <g>
    <rect class="cls-12" x="1159.99" y="574.8" width="397.29" height="237.29" rx="6.76" ry="6.76"/>
    <path class="cls-7" d="M1550.52,576.15c2.98,0,5.41,2.43,5.41,5.41v223.76c0,2.98-2.43,5.41-5.41,5.41h-383.76c-2.98,0-5.41-2.43-5.41-5.41v-223.76c0-2.98,2.43-5.41,5.41-5.41h383.76M1550.52,573.44h-383.76c-4.47,0-8.12,3.65-8.12,8.12v223.76c0,4.46,3.65,8.12,8.12,8.12h383.76c4.46,0,8.12-3.65,8.12-8.12v-223.76c0-4.47-3.65-8.12-8.12-8.12h0Z"/>
  </g>
  <g>
    <text class="cls-8" transform="translate(1191.35 731.99) scale(.97 1)"><tspan x="0" y="0">As consumer awareness about health and </tspan><tspan x="0" y="16.6">environmental impacts rises, the personal care </tspan><tspan x="0" y="33.2">sector continues to evolve, promoting holistic and </tspan><tspan x="0" y="49.79">eco-friendly approaches to self-care.</tspan></text>
    <text class="cls-9" transform="translate(1191.35 699.28) scale(.97 1)"><tspan x="0" y="0">Personal Care</tspan></text>
    <g>
      <path class="cls-7" d="M1200.32,608.6v5.12c0,.05.99-.05.99,0v6.14h1.8c.34,0,1.18.86,1.18,1.22v29.5h12.54c-.42-.53-.87-.92-1.17-1.55-.09-.19-.45-1.21-.45-1.33v-4.29h-8.01c-.07,0-.56-.26-.68-.33-.81-.46-1.19-1.22-1.25-2.16-.37-5.11.28-10.7.02-15.87,0-.76,1.24-2.12,1.91-2.12h21.05v1.02h-20.8c-.71,0-1.14,1.08-1.18,1.72-.33,4.93.26,10.26,0,15.24-.08.52.75,1.47,1.18,1.47h7.76v-3.26c0-1.68,2.29-3.83,3.92-3.89,5.09.32,10.74-.47,15.76-.02,2.13.19,3.94,1.96,4.15,4.17.18,1.88.2,6.32-.01,8.18-.13,1.18-.81,2.21-1.6,3.02h5.59v1.02h-50.48c-.52,0-1.36-1.12-1.18-1.72v-28.43c-.13-.56.71-1.6,1.18-1.6h1.8v-6.14c0-.05.99.05.99,0v-5.12h4.97ZM1199.33,609.63h-2.98v4.1h2.98v-2.05h-.99s0-.95,0-.95l1-.07v-1.02ZM1200.32,614.75h-4.97v5.12h4.97v-5.12ZM1192.71,620.92l-.27.23-.04,29.09.22.28,10.34.04.27-.23.04-29.09-.22-.28-10.34-.04ZM1219.17,636.28c-1.51.28-2.75,1.53-2.94,3.12-.2,1.72-.2,6.32,0,8.04.2,1.72,1.62,3.02,3.27,3.15,4.94-.34,10.41.43,15.28,0,1.72-.15,3.11-1.48,3.28-3.27s.18-5.96,0-7.8-1.56-3.12-3.28-3.27c-4.97-.44-10.58.31-15.62.04Z"/>
      <path class="cls-7" d="M1217.21,602.46v4.1h2.98v7.17c4.4.08,8.41,3.32,9.65,7.65.83,2.91.13,8.81-.21,11.99-.11,1.03-.1.86-1.12.83l.75-9.15c.17-4.62-2.69-8.86-7.08-9.99-2.45-.63-9.51-.53-12.22-.3-1.97.16-4.2,1.11-5.67,2.48-.32.3-1.18,1.52-1.27,1.57-.22.13-.92-.03-1.22.03-.28-.26,2.08-2.63,2.37-2.87,1.68-1.35,3.93-2.2,6.07-2.25v-7.17h2.98v-4.1h-1.92s-.58-.36-.64-.43c-.95-.97-.3-2.52,1.01-2.65,2.29-.22,5.63.08,7.94.41,2.63.37,5.24,1.06,7.78,1.84.2.16.08.13,0,.26-.15.24-1.49,1.57-1.68,1.6-2.82-.47-5.64-.87-8.5-1.03ZM1211.59,600.44c-.37.11-.47.63-.16.88,2.06.28,4.24.02,6.34.12,2.54.11,4.96.71,7.41.94.1,0,.48.15.47-.11,0-.18-2.38-.72-2.71-.79-2.48-.56-5.12-.96-7.66-1.07-.69-.03-3.2-.12-3.71.03ZM1216.22,602.46h-1.99v4.1h1.99v-4.1ZM1219.2,607.58h-7.95v6.14h7.95v-6.14Z"/>
      <path class="cls-7" d="M1233.23,609.63c-.07.17-.09.99-.12,1.02-.07.07-1.24,0-1.92.51-2.56,1.89.09,5.88,2.71,4.2.35-.22.83-1.01.9-1.01.06,0,.93.41.93.46-1.86,3.67-7.15,1.93-6.55-2.28.27-1.91,2.25-3.22,4.06-2.91Z"/>
      <path class="cls-7" d="M1236.05,608.63c3.51-.62,4.05,4.53,1.06,5.06-3.51.62-4.05-4.53-1.06-5.06ZM1236.31,609.65c-1.81.3-1.46,3.22.45,3.04,1.88-.18,1.65-3.39-.45-3.04Z"/>
      <path class="cls-7" d="M1232.58,601.46c2.19-.47,3.5,2.31,1.71,3.68-1.71,1.31-3.95-.72-2.94-2.65.21-.39.81-.94,1.23-1.03ZM1232.83,602.48c-1.14.26-.89,2.32.56,2,1.14-.26.89-2.32-.56-2Z"/>
      <path class="cls-7" d="M1241.52,604.54c2.19-.47,3.5,2.31,1.71,3.68-1.71,1.31-3.95-.72-2.94-2.65.21-.39.81-.94,1.23-1.03ZM1241.77,605.56c-1.14.26-.89,2.32.56,2,1.14-.26.89-2.32-.56-2Z"/>
      <path class="cls-7" d="M1239.65,597.77c1.4,1.44-.75,3.66-2.15,2.22-1.4-1.44.75-3.66,2.15-2.22ZM1238.41,598.38c-.59.17-.37,1.18.32.99.59-.17.37-1.18-.32-.99Z"/>
      <path class="cls-7" d="M1238.65,621.32c1.4,1.44-.75,3.66-2.15,2.22-1.4-1.44.75-3.66,2.15-2.22ZM1237.42,621.93c-.59.17-.37,1.18.32.99.59-.17.37-1.18-.32-.99Z"/>
      <rect class="cls-7" x="1244.03" y="650.59" width=".99" height="1.03"/>
      <path class="cls-7" d="M1233.73,640.35h-11.73c-.29,0-.81.53-.81.83v5.95c-.56-.11-.91-.83-.98-1.36-.13-1-.11-3.43-.02-4.47.1-1.16.8-1.88,1.92-1.98,3.24-.29,6.9.23,10.19,0,.57.07,1.29.38,1.43,1.02Z"/>
      <polygon class="cls-7" points="1202.31 626.01 1202.31 627.03 1194.36 627.03 1194.36 644.44 1202.31 644.44 1202.31 645.47 1193.37 645.47 1193.37 626.01 1202.31 626.01"/>
      <polygon class="cls-7" points="1201.32 632.15 1201.32 634.2 1202.31 634.2 1202.31 635.23 1200.32 635.23 1200.32 633.18 1199.33 633.18 1199.33 635.23 1197.34 635.23 1197.34 636.25 1199.33 636.25 1199.33 638.3 1200.32 638.3 1200.32 636.25 1202.31 636.25 1202.31 637.27 1201.32 637.27 1201.32 639.32 1198.34 639.32 1198.34 637.27 1196.35 637.27 1196.35 634.2 1198.34 634.2 1198.34 632.15 1201.32 632.15"/>
    </g>
  </g>
  <g>
    <rect class="cls-12" x="1.35" y="1.35" width="397.29" height="237.29" rx="6.77" ry="6.77"/>
    <path class="cls-7" d="M391.88,2.71c2.98,0,5.41,2.43,5.41,5.41v223.76c0,2.98-2.43,5.41-5.41,5.41H8.12c-2.98,0-5.41-2.43-5.41-5.41V8.12c0-2.98,2.43-5.41,5.41-5.41h383.76M391.88,0H8.12C3.65,0,0,3.65,0,8.12v223.76c0,4.47,3.65,8.12,8.12,8.12h383.76c4.47,0,8.12-3.65,8.12-8.12V8.12c0-4.46-3.65-8.12-8.12-8.12h0Z"/>
  </g>
  <g>
    <g>
      <path class="cls-7" d="M90.25,82.93h-15.26c-1.16-1.1-1.98-2.63-3.2-3.71-4.61-4.06-12.71-2.21-18.4-2.61-2.43-.17-4.53-1.56-6.86-2.27-5.6-1.7-11.5-2.72-16.89-5.13-1.83-.82-.12-2.85,1.39-3.15.98-.2,1.82-.37,2.79-.71,5.39.47,11.16,2.17,16.51,2.46.49.03,1.51.17,1.8-.27-1.3-.18-2.67-.54-3.78-1.26-1-.65-1.55-1.2-.27-2.01,2.17-1.38,7.58.22,10.01.63,5.3.89,8.51-3.77,14.25-.4,5.26,3.09,8.14,7.03,11.97,11.57,1.95,2.31,4.02,4.53,5.93,6.87Z"/>
      <path class="cls-7" d="M60.25,49.54v3.09c0,.47.58.74.97.49.19-.12,1.54-2.53,1.83-2.21l-1.07,2.33c5.97,1.11,10.72,5.13,13.06,10.86-1.12-.44-2.03-1.2-3.17-1.61-4.18-1.49-6.2-.01-9.97.92-2.69.66-6.22-.81-9.18-.96s-5.82-.14-7.09,3.03l-2.98-.28c2.05-6.04,6.94-10.56,13.06-11.82.11-.12-.91-1.49-1.04-1.75-.11-.24-.25-.23.04-.45l1.93,2,2.78-.24.42-3.42h.4Z"/>
      <path class="cls-7" d="M60.65,49.26c.12-4.22-.24-8.62-2.4-12.3-.31-.14-.06.2-.03.3,1.56,4.11,1.85,8.05,1.09,12.41-3.34-3.07-6.32-6.9-7.27-11.54-.75-3.66-.09-6.41-.19-9.97,0-.34-.29-.88,0-1.1,4.89-1.22,9.36,3.45,11,7.77,1.81,4.79,1.18,10.54-2.2,14.43Z"/>
      <path class="cls-7" d="M55.05,51.19c-1.9-2.33-4.04-4.54-6.87-5.63-.35,0-.31.02-.03.17,2.43,1.26,4.27,3.12,5.81,5.42.1.15.65.92.56,1-3.46-.12-7.03-.8-9.85-2.97-2.14-1.64-3.58-4.03-5.28-6.09,1.27-2.49,4.81-2.78,7.25-2.26,4.73,1.01,8.42,5.3,8.42,10.35Z"/>
      <path class="cls-7" d="M63.05,51.74c1.84-2.83,4.13-5.57,7.33-6.73.03-.26-.27-.11-.41-.07-2.97.72-5.05,3.7-7.32,5.57.08-6.5,6.58-11.57,12.69-9.99.95.25,3.4,1.35,2.76,2.62-1.96,2.18-3.38,4.57-5.86,6.19-2.78,1.82-5.94,2.26-9.19,2.41Z"/>
    </g>
    <text class="cls-8" transform="translate(28.84 155.54) scale(.97 1)"><tspan x="0" y="0">Agriculture, the cornerstone of human civilization, </tspan><tspan x="0" y="16.6">involves the cultivation of soil, the growing of crops, </tspan><tspan x="0" y="33.2">and the raising of animals for food, fiber, and other </tspan><tspan x="0" y="49.79">essential products.</tspan></text>
    <text class="cls-9" transform="translate(28.84 122.82) scale(.97 1)"><tspan x="0" y="0">Agriculture</tspan></text>
  </g>
  <rect class="cls-3" x="616.61" y="345.72" width="330.43" height="123" rx="26.99" ry="26.99"/>
  <g>
    <path class="cls-10" d="M782.06,451.15h-10.11l-19.59-62.45-1.32.89-7.52,24.98h-10.11l11.68-37.23c1.06-1.27,10.74-.57,12.99-.33l23.98,74.14Z"/>
    <g class="cls-11">
      <path class="cls-7" d="M654.45,385.55c2.9-9.99,15.19-9.5,23.71-8.86,9.93.75,13.61,5.23,13.56,15.16h-10.11c-.32,0,.85-3.9-2.35-5.54-2.37-1.22-12.36-1.43-14.12.77-2.02,2.52-2.26,17.36,1.76,18.52,1.62.46,11.13.35,12.67-.29,2.72-1.11,1.72-5.89,2.05-5.89h10.11c0,5.23-1.2,11.66-6.52,13.99-3.74,1.64-18.29,1.71-22.42.71-4.2-1.01-7.13-4.37-8.33-8.4v-20.18Z"/>
      <path class="cls-7" d="M811.11,376.72v8.83h-23.69c-4.01,0-4.16,5.68-1.9,5.68h15.16c.22,0,3.74,1.18,4.26,1.42,6.96,3.23,7.8,13.43,2.63,18.7-.9.92-5.31,3.22-6.25,3.22h-27.48v-8.83h24.32c1.8,0,4.11-3.69.8-5.21-3.36-1.55-12.39.22-16.94-.74-10.13-2.15-11.23-17.6-2.01-21.64.65-.29,4.5-1.42,4.89-1.42h26.22Z"/>
      <path class="cls-7" d="M852.81,376.72v8.83h-23.69c-3.18,0-6.04,5.13.6,5.7,6.46.55,14.3-1.78,19.6,3.13,4.9,4.55,4.57,14.07-.99,17.93-.88.61-4.53,2.25-5.33,2.25h-27.48v-8.83h24.32c1.79,0,4.64-3.57.78-5.2-3.67-1.55-11.67.19-16.3-.76-10.69-2.2-11.83-17.89-2.12-21.74.82-.33,4.41-1.32,4.99-1.32h25.58Z"/>
      <path class="cls-7" d="M909.03,391.85h-9.48c-.29,0,.35-3.8-1.92-5.33s-12.61-1.61-14.53.57c-2.1,2.38-2.35,17.32,1.74,18.51,1.28.37,10.47.37,11.74,0,3.55-1.04,2.61-6.18,2.97-6.18h9.48c.46,5.23-.26,11.24-5.53,13.72-4.35,2.05-19.69,2.16-24.15.46-3.04-1.16-5.99-3.95-6.68-7.21-.7-3.31-.76-18.28,0-21.53,2.14-9.23,16.05-8.76,23.44-8.18,9.72.76,13.99,5.19,12.93,15.16Z"/>
      <path class="cls-7" d="M706.25,376.72v26.18c0,.63,2.21,2.84,2.84,2.84h20.53v8.83h-23.69c-4.05,0-9.79-5.73-9.79-9.78v-28.07h10.11Z"/>
      <rect class="cls-7" x="857.23" y="391.22" width="10.11" height="23.34"/>
      <path class="cls-7" d="M847.13,420.24v3.16c-1.41.16-5.82-.63-6.31.95-.84,2.67,3.08,1.89,3.19,2.56.78,4.63-2.82,1.93-3.17,3.8-.52,2.79,4.14,2.98,5.36.91,1.38-2.35-1.28-1.95-1.58-2.86-1.1-3.3,5.98-1.98,7.57-2.2.68,4.32-.98,2.61-1.74,3.27-.83.72-.67,4.5-3.99,5.81-4.21,1.66-9.51.49-8.78-4.94.53-3.93.21-2.17-.07-5.72-.51-6.55,4.95-4.41,9.53-4.73Z"/>
      <path class="cls-7" d="M781.42,424.02c6.03-.65,13.1.47,11.07,8.22-1.41,5.36-6.79,3.27-7.28,3.76-.55.56,1.59,5.71-3.79,4.42v-16.4ZM784.58,427.17l.3,5.71c5.84,1.72,6.28-7.33-.3-5.71Z"/>
      <path class="cls-7" d="M861.65,424.02c3.68.15,8.1-.99,10.23,2.71,1.86,3.24,1.12,8.57-3.01,9.23-4.25.69-4.41-1.75-4.06,4.46h-3.16v-16.4ZM864.81,432.86c6.38,1.49,6.32-7.2,0-5.68v5.68Z"/>
      <path class="cls-7" d="M897.66,420.24h3.79s0,8.2,0,8.2c2.65-1.95,3.29-5.9,7.58-4.09-5.53,6.22-4.7,5.36,0,11.66-4.4.85-5.27-1.15-7.26-4.42-.48,3.37.14,4.96-4.11,4.42v-15.77Z"/>
      <path class="cls-7" d="M885.02,436.01h-9.16c-2.16,0-4.28-5.98.91-7.3,1.67-.43,4.98.52,4.46-1.53h-6.95s0-3.16,0-3.16c2.04-.48,10.74.04,10.74,2.84v9.15ZM881.87,431.6c-1.09.42-5.09-1.05-5.05.93,1.24,1.56,3.35.85,5.05.95v-1.89Z"/>
      <rect class="cls-7" x="857.23" y="376.72" width="10.11" height="8.83"/>
      <rect class="cls-7" x="746.68" y="405.73" width="10.11" height="8.83"/>
      <path class="cls-7" d="M819.33,436.01h-3.16c-.52-3.77,2.12-9.92-3.79-8.83v8.83h-3.16v-11.98c2.25-.19,10.11-.39,10.11,2.84v9.15Z"/>
      <path class="cls-7" d="M825.65,420.24c.24.24-.24,3.57,0,3.79s2.31-.22,2.54,0c.11.11.11,3.05,0,3.16-.72.69-3.41-2.18-2.57,4.13.45,3.38,3.36.8,2.56,4.69-8.21,2.46-5.5-7.91-6.39-8.79-.26-.26-1.73.33-1.87-.38-.77-4.07,1.83-2.38,1.98-3.16s-.28-3.21-.05-3.44c.13-.13,3.66-.13,3.8,0Z"/>
      <path class="cls-7" d="M896.4,424.02v3.16c-1.84.1-6.1-.6-6.37,1.55-.66,5.4,2.2,4.06,6.37,4.12v3.16c-13.48,2.62-13.56-14.45,0-11.99Z"/>
      <path class="cls-7" d="M794.06,424.02c5.15-.12,9.06-.94,8.22,5.68-5.05,1.16-1.64-2.59-5.06-3.16v9.46h-3.16v-11.98Z"/>
      <rect class="cls-7" x="803.53" y="424.02" width="3.16" height="11.98"/>
      <path class="cls-7" d="M807.33,420.24c.43,3.14-1.02,3.42-3.79,3.15v-3.16s3.79,0,3.79,0Z"/>
    </g>
  </g>
  <polyline class="cls-2" points="879.34 338.42 980.08 123.23 1133.86 123.23"/>
  <polyline class="cls-2" points="879.3 476.03 980.04 691.22 1133.82 691.22"/>
  <g>
    <line class="cls-4" x1="686.82" y1="338.42" x2="684.7" y2="333.9"/>
    <line class="cls-6" x1="680.5" y1="324.93" x2="590.3" y2="132.24"/>
    <polyline class="cls-4" points="588.2 127.76 586.08 123.23 581.08 123.23"/>
    <line class="cls-5" x1="571.5" y1="123.23" x2="442.09" y2="123.23"/>
    <line class="cls-4" x1="437.3" y1="123.23" x2="432.3" y2="123.23"/>
  </g>
  <polyline class="cls-2" points="686.86 476.03 586.13 691.22 432.34 691.22"/>
  <line class="cls-2" x1="954.25" y1="406.72" x2="1133.86" y2="406.72"/>
  <line class="cls-1" x1="432.25" y1="406.72" x2="611.86" y2="406.72"/>
</svg>