<?xml version="1.0" encoding="UTF-8"?>
<!DOCTYPE svg PUBLIC "-//W3C//DTD SVG 1.1//EN" "http://www.w3.org/Graphics/SVG/1.1/DTD/svg11.dtd">
<!-- Creator: CorelDRAW -->
<svg xmlns="http://www.w3.org/2000/svg" xml:space="preserve" width="54.8665mm" height="11.915mm" version="1.1" style="shape-rendering:geometricPrecision; text-rendering:geometricPrecision; image-rendering:optimizeQuality; fill-rule:evenodd; clip-rule:evenodd"
viewBox="0 0 8792.73 1909.46"
 xmlns:xlink="http://www.w3.org/1999/xlink"
 xmlns:xodm="http://www.corel.com/coreldraw/odm/2003">
 <defs>
  <style type="text/css">
   <![CDATA[
    .fil6 {fill:#E31E24}
    .fil3 {fill:#1E1720}
    .fil5 {fill:#1C1B17}
    .fil2 {fill:#2B2A29;fill-rule:nonzero}
    .fil1 {fill:#E31E24;fill-rule:nonzero}
    .fil4 {fill:url(#id0)}
    .fil0 {fill:url(#id1);fill-rule:nonzero}
   ]]>
  </style>
  <linearGradient id="id0" gradientUnits="userSpaceOnUse" x1="776.85" y1="928.51" x2="835.43" y2="249.74">
   <stop offset="0" style="stop-opacity:1; stop-color:#898989"/>
   <stop offset="1" style="stop-opacity:1; stop-color:#FEFEFE"/>
  </linearGradient>
  <linearGradient id="id1" gradientUnits="userSpaceOnUse" x1="5807.95" y1="1049.87" x2="5807.95" y2="181.8">
   <stop offset="0" style="stop-opacity:1; stop-color:#E31E24"/>
   <stop offset="1" style="stop-opacity:1; stop-color:#EF7F1A"/>
  </linearGradient>
 </defs>
 <g id="Layer_x0020_1">
  <metadata id="CorelCorpID_0Corel-Layer"/>
  <g id="_1342915813520">
   <path class="fil0" d="M7591.26 1049.87l0 -529.73 218 0 0 529.73 -218 0zm983.45 -302.87l0 -32.95 218.03 0 0 51.96c0,45.63 -6.92,86.17 -20.75,121.65 -13.8,35.48 -33.37,65.27 -58.62,89.34 -25.3,24.09 -55.3,42.24 -90.06,54.49 -34.76,12.26 -73.06,18.38 -114.94,18.38l-290.31 0c-41.86,0 -80.18,-6.12 -114.92,-18.38 -34.78,-12.24 -64.58,-30.4 -89.49,-54.49 -24.87,-24.07 -44.23,-53.86 -58.05,-89.34 -13.83,-35.48 -20.75,-76.03 -20.75,-121.65l0 -300.34c0,-45.63 6.92,-85.96 20.75,-121.03 13.81,-35.05 33.17,-64.65 58.05,-88.72 24.9,-24.09 54.71,-42.45 89.49,-55.13 34.74,-12.68 73.06,-19.01 114.92,-19.01l290.31 0c41.88,0 80.18,6.33 114.94,19.01 34.76,12.68 64.76,31.04 90.06,55.13 25.26,24.07 44.82,53.67 58.62,88.72 13.83,35.06 20.75,75.4 20.75,121.03l0 51.96 -218.03 0 0 -32.95c0,-36.33 -8.88,-63.8 -26.65,-82.37 -17.77,-18.59 -43.25,-27.88 -76.43,-27.88l-215.64 0c-33.19,0 -58.65,9.29 -76.44,27.88 -17.77,18.57 -26.67,46.04 -26.67,82.37l0 262.32c0,36.31 8.89,63.78 26.67,82.39 17.79,18.57 43.25,27.85 76.44,27.85l215.64 0c33.17,0 58.65,-9.28 76.43,-27.85 17.77,-18.61 26.65,-46.07 26.65,-82.39zm-5111.68 0l0 -32.95 218.03 0 0 51.96c0,45.63 -6.92,86.17 -20.75,121.65 -13.81,35.48 -33.37,65.27 -58.62,89.34 -25.3,24.09 -55.3,42.24 -90.08,54.49 -34.74,12.26 -73.06,18.38 -114.94,18.38l-290.29 0c-41.86,0 -80.18,-6.12 -114.95,-18.38 -34.74,-12.24 -64.57,-30.4 -89.46,-54.49 -24.87,-24.07 -44.25,-53.86 -58.05,-89.34 -13.83,-35.48 -20.75,-76.03 -20.75,-121.65l0 -300.34c0,-45.63 6.92,-85.96 20.75,-121.03 13.8,-35.05 33.17,-64.65 58.05,-88.72 24.89,-24.09 54.71,-42.45 89.46,-55.13 34.78,-12.68 73.09,-19.01 114.95,-19.01l290.29 0c41.88,0 80.19,6.33 114.94,19.01 34.78,12.68 64.78,31.04 90.08,55.13 25.26,24.07 44.81,53.67 58.62,88.72 13.83,35.06 20.75,75.4 20.75,121.03l0 51.96 -218.03 0 0 -32.95c0,-36.33 -8.88,-63.8 -26.65,-82.37 -17.79,-18.59 -43.25,-27.88 -76.44,-27.88l-215.64 0c-33.19,0 -58.67,9.29 -76.43,27.88 -17.77,18.57 -26.67,46.04 -26.67,82.37l0 262.32c0,36.31 8.89,63.78 26.67,82.39 17.76,18.57 43.24,27.85 76.43,27.85l215.64 0c33.19,0 58.65,-9.28 76.44,-27.85 17.77,-18.61 26.65,-46.07 26.65,-82.39zm560.47 0l0 -565.21 -216.83 0 0 584.22c0,45.63 6.89,86.17 20.72,121.65 13.81,35.48 33.17,65.27 58.05,89.34 24.9,24.09 54.71,42.24 89.49,54.49 34.74,12.26 73.08,18.38 114.94,18.38l490.55 0 0 -192.63 -453.83 0c-33.17,0 -58.64,-9.28 -76.41,-27.85 -17.77,-18.61 -26.67,-46.07 -26.67,-82.39zm1600.82 302.87l0 -192.63 536.75 0c26.86,0 50.16,-5.69 69.9,-17.12 19.74,-11.39 29.63,-30.19 29.63,-56.38 0,-21.97 -7.5,-38.43 -22.52,-49.41 -15.02,-10.99 -33.19,-18.17 -54.5,-21.55l-274.9 0c-38.7,0 -74.65,-5.29 -107.84,-15.85 -33.17,-10.54 -62.2,-26.39 -87.07,-47.5 -24.9,-21.14 -45.24,-47.12 -61.03,-77.95 -15.8,-30.85 -25.29,-66.12 -28.43,-105.82l0 -36.75c4.73,-39.71 14.81,-74.98 30.19,-105.83 15.4,-30.83 35.37,-56.6 59.84,-77.29 24.49,-20.69 53.13,-36.54 85.9,-47.52 32.79,-10.99 68.93,-16.49 108.43,-16.49l573.5 0 0 192.63 -536.75 0c-26.88,0 -50.18,5.71 -69.9,17.12 -19.78,11.39 -29.65,30.21 -29.65,56.38 0,21.99 7.32,38.86 21.94,50.69 14.6,11.83 32.56,19.02 53.91,21.54l276.07 0c38.7,0 74.65,5.29 107.84,15.85 33.16,10.54 62.2,26.2 87.08,46.89 24.87,20.71 45.02,46.47 60.43,77.29 15.4,30.85 25.08,66.12 29.02,105.83l0 36.75c-4.74,39.71 -14.81,74.98 -30.21,105.83 -15.4,30.82 -35.35,56.59 -59.84,77.29 -24.49,20.69 -53.33,36.52 -86.49,47.52 -33.19,10.98 -69.13,16.47 -107.84,16.47l-573.48 0zm983.46 0l0 -192.63 536.76 0c26.84,0 50.14,-5.69 69.92,-17.12 19.73,-11.39 29.62,-30.19 29.62,-56.38 0,-21.97 -7.52,-38.43 -22.53,-49.41 -15,-10.99 -33.17,-18.17 -54.5,-21.55l-274.9 0c-38.69,0 -74.65,-5.29 -107.8,-15.85 -33.19,-10.54 -62.21,-26.39 -87.1,-47.5 -24.89,-21.14 -45.22,-47.12 -61.03,-77.95 -15.79,-30.85 -25.27,-66.12 -28.43,-105.82l0 -36.75c4.73,-39.71 14.81,-74.98 30.21,-105.83 15.42,-30.83 35.35,-56.6 59.82,-77.29 24.5,-20.69 53.14,-36.54 85.91,-47.52 32.79,-10.99 68.93,-16.49 108.41,-16.49l573.51 0 0 192.63 -536.76 0c-26.88,0 -50.18,5.71 -69.9,17.12 -19.76,11.39 -29.63,30.21 -29.63,56.38 0,21.99 7.31,38.86 21.92,50.69 14.62,11.83 32.58,19.02 53.91,21.54l276.07 0c38.72,0 74.65,5.29 107.85,15.85 33.16,10.54 62.2,26.2 87.07,46.89 24.89,20.71 45.03,46.47 60.43,77.29 15.42,30.85 25.1,66.12 29.04,105.83l0 36.75c-4.74,39.71 -14.82,74.98 -30.22,105.83 -15.38,30.82 -35.35,56.59 -59.84,77.29 -24.47,20.69 -53.32,36.52 -86.47,47.52 -33.21,10.98 -69.13,16.47 -107.85,16.47l-573.48 0zm1201.48 -675.45l-218 0 0 -192.63 218 0 0 192.63z"/>
   <polygon class="fil1" points="5586.83,1909.46 5101.75,392.16 4893.2,1049.87 4676.36,1049.87 4954.82,181.8 5248.67,181.8 5804.86,1909.46 "/>
   <polygon class="fil1" points="4992.74,1049.87 4992.74,857.25 5210.77,857.25 5210.77,1049.87 "/>
   <path class="fil2" d="M5874.84 1347.36l0 153.05 40.54 0c26.96,0 45.96,-6.04 57.18,-18.19 11.2,-12.08 16.76,-32.24 16.76,-60.48 0,-27.2 -5.18,-46.41 -15.42,-57.55 -10.26,-11.23 -28.06,-16.83 -53.35,-16.83l-45.72 0zm-66.28 -58.16l127.82 0c38.57,0 68.62,12.15 90.24,36.38 21.54,24.25 32.36,58.08 32.36,101.44 0,17.77 -2.23,34.09 -6.76,48.88 -4.52,14.89 -11.38,28.49 -20.5,40.83 -10.9,14.7 -23.93,25.34 -39.12,31.7 -15.26,6.38 -35.45,9.62 -60.59,9.62l-57.16 0 0 97.44 -66.28 0 0 -366.28zm290.88 0l111.55 0c26.14,0 44.42,5 54.94,15.03 10.48,10.03 15.72,27.64 15.72,52.72l0 44.98 -63.43 0 0 -34.7c0,-10.54 -1.76,-17.6 -5.26,-21.17 -3.49,-3.57 -11.44,-5.35 -23.93,-5.35l-23.3 0 0 217.32 -66.3 0 0 -268.85zm293.91 -30.63l-69.65 0 0 -66.83 69.65 0 0 66.83zm0 299.47l-69.65 0 0 -268.85 69.65 0 0 268.85zm57.31 -268.85l124.9 0c37.69,0 64.63,7.56 80.77,22.77 16.15,15.22 24.23,40.48 24.23,75.77l0 170.3 -66.28 0 0 -161.64c0,-20.06 -2.95,-33.08 -8.75,-39.12 -5.8,-5.95 -17.58,-8.93 -35.13,-8.93l-53.43 0 0 209.68 -66.31 0 0 -268.85zm261.48 0l46.75 0 0 -97.45 66.31 0 0 97.45 70.11 0 0 53.54 -70.11 0 0 108.69c0,19.89 3.19,33.75 9.52,41.49 6.38,7.74 17.5,11.55 33.32,11.55l27.28 0 0 53.57 -60.59 0c-24.47,0 -43.24,-7.23 -56.27,-21.76 -13.04,-14.55 -19.57,-35.38 -19.57,-62.4l0 -131.14 -46.75 0 0 -53.54zm705.58 118.33c-11.39,53.49 -31.35,93.05 -59.89,118.72 -28.62,25.58 -67.16,38.43 -115.75,38.43 -38.7,0 -69.15,-8.93 -91.51,-26.88 -22.24,-17.95 -33.38,-42.34 -33.38,-73.21 0,-18.46 3.81,-34.78 11.52,-49.05 7.72,-14.29 19.25,-26.52 34.6,-36.65 -15.35,-10.11 -26.97,-22.79 -34.82,-38.09 -7.88,-15.3 -11.76,-32.64 -11.76,-52.12 0,-30.35 9.04,-54.17 27.26,-71.25 18.21,-17.1 43.64,-25.69 76.31,-25.69l115.35 0 0 67.87 -97.21 0c-15.66,0 -28.16,3.72 -37.37,11.28 -9.15,7.58 -13.77,17.61 -13.77,30.03 0,13.93 3.81,24.73 11.36,32.39 7.56,7.66 18.21,11.47 32.13,11.47l23.29 0 0 62.74 -22.42 0c-12.23,0 -22.18,3.93 -29.74,11.84 -7.53,7.9 -11.27,18.43 -11.27,31.62 0,14.63 5,26.36 15.03,35.11 10.02,8.85 23.51,13.27 40.46,13.27 25.75,0 46.49,-7.56 62.31,-22.61 15.75,-15.06 27.05,-38.09 33.88,-69.23l-48.19 0 0 -62.74 166.01 0 0 62.74 -42.44 0zm336.89 -60.18l0 153.05 40.54 0c26.96,0 45.96,-6.04 57.16,-18.19 11.22,-12.08 16.78,-32.24 16.78,-60.48 0,-27.2 -5.18,-46.41 -15.42,-57.55 -10.26,-11.23 -28.08,-16.83 -53.35,-16.83l-45.72 0zm-66.3 -58.16l127.84 0c38.56,0 68.61,12.15 90.22,36.38 21.55,24.25 32.37,58.08 32.37,101.44 0,17.77 -2.23,34.09 -6.76,48.88 -4.54,14.89 -11.38,28.49 -20.51,40.83 -10.9,14.7 -23.93,25.34 -39.1,31.7 -15.27,6.38 -35.48,9.62 -60.59,9.62l-57.16 0 0 97.44 -66.3 0 0 -366.28zm384.22 214.76l83.17 0 0 -55.59 -78.24 0c-15.58,0 -26.23,2.21 -32.21,6.7 -5.88,4.52 -8.81,12.36 -8.81,23.48 0,9.44 2.39,16.07 7.08,19.82 4.76,3.73 14.47,5.59 29.01,5.59zm-88.08 -214.76l135.85 0c34.28,0 60.11,8.41 77.53,25.24 17.39,16.92 26.07,41.92 26.07,75.18l0 168.43 -178.4 0c-24.97,0 -44.2,-6.73 -57.64,-20.14 -13.45,-13.53 -20.11,-32.56 -20.11,-57.39 0,-30.54 7.71,-52.47 23.13,-65.74 15.5,-13.35 41.11,-19.98 77.05,-19.98l87.29 0 0 -6.71c0,-15.9 -4.38,-27.12 -13.13,-33.59 -8.81,-6.46 -24.39,-9.7 -46.99,-9.7l-110.66 0 0 -55.59zm434.55 211.2l70.51 0 0 57.64 -90.06 0c-22.84,0 -41.49,-2.56 -56.22,-7.56 -14.62,-5.11 -27.42,-13.27 -38.32,-24.58 -11.6,-12.32 -20.75,-27.29 -27.34,-44.97 -6.6,-17.68 -9.86,-36.39 -9.86,-56.22 0,-20.74 3.25,-40.13 9.78,-58.16 6.52,-18.01 15.66,-33.06 27.42,-45.22 11.04,-11.3 24.02,-19.47 38.8,-24.57 14.79,-5.03 33.4,-7.56 55.74,-7.56l90.06 0 0 58.16 -70.51 0c-31.15,0 -52.63,5.77 -64.47,17.26 -11.76,11.55 -17.64,31.62 -17.64,60.1 0,16.43 2.37,30.03 7.23,40.83 4.78,10.8 12.24,19.55 22.34,26.19 4.94,3.13 10.72,5.35 17.32,6.7 6.6,1.28 18.29,1.97 35.22,1.97zm116.23 -308.65l66.3 0 0 226.51 106.68 -129.05 84.12 0 -116.47 131.52 116.47 137.32 -89.2 0 -101.6 -130.59 0 130.59 -66.3 0 0 -366.3z"/>
  </g>
  <g id="_1342915811840">
   <path class="fil3" d="M526.12 1264.51l476.76 -962.84c89.25,-180.22 343.73,-287.79 565.58,-247.08 387.36,71.06 543.01,369.87 509.62,646.36 -43.45,359.86 -314.89,552.84 -605.18,552.79 -212.24,-0.02 -385.07,-130.42 -487.71,-287.81 -105.98,176.44 -266.65,263.46 -459.07,298.57zm992.13 -934.2c176.7,15.26 307.58,170.85 292.32,347.57 -15.24,176.68 -170.85,307.56 -347.55,292.32 -176.7,-15.26 -307.58,-170.87 -292.34,-347.57 15.26,-176.7 170.87,-307.58 347.57,-292.32zm-664.18 78.19l120.53 -248.53c-317.32,-242.39 -793.88,-127.76 -922.61,296.86 -117.76,388.54 95.22,624.07 396.25,766.06l122.97 -261.52c-214.74,-37.47 -314.62,-245.27 -252.95,-436.64 65.85,-204.31 344.07,-281.52 535.82,-116.23z"/>
   <path class="fil4" d="M507.12 1229.88l476.76 -962.84c89.25,-180.22 343.73,-287.81 565.58,-247.1 387.37,71.07 543.03,369.87 509.63,646.38 -43.46,359.84 -314.9,552.84 -605.19,552.79 -212.24,-0.03 -385.07,-130.42 -487.71,-287.81 -105.98,176.44 -266.65,263.45 -459.07,298.57zm992.15 -934.2c176.68,15.24 307.56,170.85 292.31,347.55 -15.24,176.7 -170.85,307.58 -347.53,292.32 -176.72,-15.24 -307.6,-170.85 -292.34,-347.55 15.24,-176.7 170.85,-307.58 347.57,-292.32zm-664.2 78.17l120.53 -248.51c-317.32,-242.4 -793.88,-127.77 -922.61,296.86 -117.76,388.54 95.22,624.07 396.25,766.04l122.97 -261.52c-214.74,-37.45 -314.6,-245.26 -252.93,-436.62 65.85,-204.31 344.06,-281.54 535.8,-116.25z"/>
   <circle class="fil5" cx="1489.26" cy="653.12" r="173.52"/>
   <circle class="fil6" cx="1470.99" cy="621.15" r="173.52"/>
  </g>
 </g>
</svg>
