<?xml version="1.0" encoding="UTF-8"?>
<!DOCTYPE svg PUBLIC "-//W3C//DTD SVG 1.1//EN" "http://www.w3.org/Graphics/SVG/1.1/DTD/svg11.dtd">
<!-- Creator: CorelDRAW -->
<svg xmlns="http://www.w3.org/2000/svg" xml:space="preserve" width="34.0988mm" height="21.5681mm" version="1.1" style="shape-rendering:geometricPrecision; text-rendering:geometricPrecision; image-rendering:optimizeQuality; fill-rule:evenodd; clip-rule:evenodd"
viewBox="0 0 2025.88 1281.4"
 xmlns:xlink="http://www.w3.org/1999/xlink"
 xmlns:xodm="http://www.corel.com/coreldraw/odm/2003">
 <defs>
  <style type="text/css">
   <![CDATA[
    .fil6 {fill:#E31E24}
    .fil3 {fill:#1E1720}
    .fil5 {fill:#1C1B17}
    .fil2 {fill:#2B2A29;fill-rule:nonzero}
    .fil1 {fill:#E31E24;fill-rule:nonzero}
    .fil4 {fill:url(#id0)}
    .fil0 {fill:url(#id1);fill-rule:nonzero}
   ]]>
  </style>
  <linearGradient id="id0" gradientUnits="userSpaceOnUse" x1="903.93" y1="382.82" x2="928.08" y2="102.97">
   <stop offset="0" style="stop-opacity:1; stop-color:#898989"/>
   <stop offset="1" style="stop-opacity:1; stop-color:#FEFEFE"/>
  </linearGradient>
  <linearGradient id="id1" gradientUnits="userSpaceOnUse" x1="1012.94" y1="989.69" x2="1012.94" y2="695.09">
   <stop offset="0" style="stop-opacity:1; stop-color:#E31E24"/>
   <stop offset="1" style="stop-opacity:1; stop-color:#EF7F1A"/>
  </linearGradient>
 </defs>
 <g id="Layer_x0020_1">
  <metadata id="CorelCorpID_0Corel-Layer"/>
  <path class="fil0" d="M1618.13 989.69l0 -179.77 73.99 0 0 179.77 -73.99 0zm333.75 -102.79l0 -11.18 73.99 0 0 17.63c0,15.48 -2.35,29.24 -7.04,41.29 -4.69,12.04 -11.32,22.15 -19.9,30.32 -8.59,8.18 -18.77,14.34 -30.57,18.49 -11.79,4.16 -24.79,6.24 -39,6.24l-98.52 0c-14.21,0 -27.21,-2.08 -39,-6.24 -11.8,-4.16 -21.92,-10.32 -30.37,-18.49 -8.44,-8.17 -15.01,-18.28 -19.7,-30.32 -4.69,-12.04 -7.04,-25.8 -7.04,-41.29l0 -101.93c0,-15.48 2.35,-29.17 7.04,-41.07 4.69,-11.89 11.26,-21.93 19.7,-30.1 8.45,-8.18 18.57,-14.41 30.37,-18.71 11.79,-4.3 24.8,-6.45 39,-6.45l98.52 0c14.21,0 27.21,2.15 39,6.45 11.8,4.3 21.98,10.53 30.57,18.71 8.57,8.17 15.21,18.21 19.9,30.1 4.69,11.9 7.04,25.59 7.04,41.07l0 17.63 -73.99 0 0 -11.18c0,-12.33 -3.01,-21.65 -9.04,-27.95 -6.04,-6.31 -14.68,-9.46 -25.94,-9.46l-73.18 0c-11.26,0 -19.9,3.15 -25.94,9.46 -6.03,6.3 -9.05,15.63 -9.05,27.95l0 89.02c0,12.33 3.02,21.65 9.05,27.96 6.04,6.3 14.68,9.45 25.94,9.45l73.18 0c11.26,0 19.9,-3.15 25.94,-9.45 6.03,-6.31 9.04,-15.63 9.04,-27.96zm-1734.74 0l0 -11.18 73.99 0 0 17.63c0,15.48 -2.35,29.24 -7.04,41.29 -4.69,12.04 -11.32,22.15 -19.9,30.32 -8.59,8.18 -18.77,14.34 -30.57,18.49 -11.79,4.16 -24.79,6.24 -39,6.24l-98.52 0c-14.21,0 -27.21,-2.08 -39.01,-6.24 -11.79,-4.16 -21.91,-10.32 -30.36,-18.49 -8.44,-8.17 -15.01,-18.28 -19.7,-30.32 -4.69,-12.04 -7.04,-25.8 -7.04,-41.29l0 -101.93c0,-15.48 2.35,-29.17 7.04,-41.07 4.69,-11.89 11.26,-21.93 19.7,-30.1 8.45,-8.18 18.57,-14.41 30.36,-18.71 11.8,-4.3 24.8,-6.45 39.01,-6.45l98.52 0c14.21,0 27.21,2.15 39,6.45 11.8,4.3 21.98,10.53 30.57,18.71 8.57,8.17 15.21,18.21 19.9,30.1 4.69,11.9 7.04,25.59 7.04,41.07l0 17.63 -73.99 0 0 -11.18c0,-12.33 -3.01,-21.65 -9.04,-27.95 -6.04,-6.31 -14.68,-9.46 -25.94,-9.46l-73.18 0c-11.26,0 -19.91,3.15 -25.94,9.46 -6.03,6.3 -9.05,15.63 -9.05,27.95l0 89.02c0,12.33 3.02,21.65 9.05,27.96 6.03,6.3 14.67,9.45 25.94,9.45l73.18 0c11.26,0 19.9,-3.15 25.94,-9.45 6.03,-6.31 9.04,-15.63 9.04,-27.96zm190.21 0l0 -191.81 -73.59 0 0 198.26c0,15.48 2.34,29.24 7.03,41.29 4.69,12.04 11.26,22.15 19.7,30.32 8.45,8.18 18.57,14.34 30.37,18.49 11.79,4.16 24.8,6.24 39,6.24l166.48 0 0 -65.38 -154.01 0c-11.26,0 -19.9,-3.15 -25.93,-9.45 -6.03,-6.31 -9.05,-15.63 -9.05,-27.96zm543.26 102.79l0 -65.38 182.16 0c9.11,0 17.02,-1.93 23.72,-5.8 6.7,-3.87 10.06,-10.25 10.06,-19.14 0,-7.46 -2.55,-13.04 -7.65,-16.77 -5.09,-3.73 -11.26,-6.17 -18.49,-7.31l-93.29 0c-13.13,0 -25.33,-1.79 -36.59,-5.38 -11.26,-3.58 -21.11,-8.96 -29.55,-16.12 -8.45,-7.17 -15.35,-15.99 -20.71,-26.45 -5.36,-10.47 -8.58,-22.44 -9.65,-35.91l0 -12.47c1.6,-13.47 5.03,-25.45 10.25,-35.91 5.23,-10.46 12,-19.21 20.31,-26.23 8.31,-7.02 18.03,-12.4 29.15,-16.12 11.13,-3.73 23.39,-5.6 36.79,-5.6l194.63 0 0 65.37 -182.16 0c-9.12,0 -17.03,1.94 -23.72,5.81 -6.71,3.87 -10.06,10.25 -10.06,19.13 0,7.46 2.48,13.19 7.44,17.21 4.95,4.01 11.05,6.45 18.29,7.31l93.69 0c13.14,0 25.33,1.79 36.6,5.38 11.25,3.58 21.11,8.89 29.55,15.92 8.44,7.02 15.28,15.77 20.51,26.23 5.23,10.47 8.51,22.44 9.85,35.91l0 12.47c-1.61,13.47 -5.03,25.45 -10.25,35.91 -5.22,10.46 -12,19.21 -20.31,26.23 -8.31,7.02 -18.1,12.4 -29.35,16.13 -11.26,3.73 -23.46,5.59 -36.6,5.59l-194.62 0zm333.76 0l0 -65.38 182.16 0c9.11,0 17.02,-1.93 23.73,-5.8 6.7,-3.87 10.05,-10.25 10.05,-19.14 0,-7.46 -2.55,-13.04 -7.65,-16.77 -5.09,-3.73 -11.26,-6.17 -18.49,-7.31l-93.29 0c-13.13,0 -25.33,-1.79 -36.59,-5.38 -11.26,-3.58 -21.12,-8.96 -29.56,-16.12 -8.45,-7.17 -15.35,-15.99 -20.71,-26.45 -5.36,-10.47 -8.58,-22.44 -9.65,-35.91l0 -12.47c1.6,-13.47 5.03,-25.45 10.25,-35.91 5.23,-10.46 12,-19.21 20.31,-26.23 8.31,-7.02 18.03,-12.4 29.15,-16.12 11.13,-3.73 23.39,-5.6 36.79,-5.6l194.63 0 0 65.37 -182.16 0c-9.12,0 -17.03,1.94 -23.72,5.81 -6.71,3.87 -10.06,10.25 -10.06,19.13 0,7.46 2.48,13.19 7.44,17.21 4.95,4.01 11.06,6.45 18.29,7.31l93.69 0c13.14,0 25.33,1.79 36.6,5.38 11.25,3.58 21.11,8.89 29.55,15.92 8.44,7.02 15.28,15.77 20.51,26.23 5.23,10.47 8.51,22.44 9.85,35.91l0 12.47c-1.61,13.47 -5.03,25.45 -10.25,35.91 -5.22,10.46 -12,19.21 -20.31,26.23 -8.31,7.02 -18.1,12.4 -29.35,16.13 -11.26,3.73 -23.46,5.59 -36.6,5.59l-194.62 0zm407.74 -229.23l-73.99 0 0 -65.37 73.99 0 0 65.37z"/>
  <polygon class="fil1" points="937.9,1281.4 773.28,766.48 702.51,989.69 628.92,989.69 723.42,695.09 823.14,695.09 1011.89,1281.4 "/>
  <polygon class="fil1" points="736.29,989.69 736.29,924.31 810.27,924.31 810.27,989.69 "/>
  <path class="fil2" d="M1035.64 1090.64l0 51.94 13.76 0c9.15,0 15.6,-2.05 19.4,-6.17 3.8,-4.1 5.69,-10.94 5.69,-20.52 0,-9.23 -1.76,-15.75 -5.23,-19.53 -3.48,-3.81 -9.52,-5.71 -18.1,-5.71l-15.52 0zm-22.49 -19.74l43.38 0c13.09,0 23.29,4.12 30.63,12.35 7.31,8.23 10.98,19.71 10.98,34.43 0,6.03 -0.75,11.57 -2.29,16.59 -1.54,5.05 -3.86,9.67 -6.96,13.85 -3.7,4.99 -8.12,8.6 -13.28,10.76 -5.17,2.16 -12.03,3.26 -20.56,3.26l-19.4 0 0 33.07 -22.49 0 0 -124.31zm98.71 0l37.86 0c8.87,0 15.08,1.7 18.64,5.1 3.56,3.4 5.34,9.38 5.34,17.89l0 15.26 -21.52 0 0 -11.78c0,-3.58 -0.59,-5.97 -1.78,-7.18 -1.19,-1.21 -3.89,-1.82 -8.12,-1.82l-7.91 0 0 73.75 -22.5 0 0 -91.24zm99.75 -10.39l-23.64 0 0 -22.68 23.64 0 0 22.68zm0 101.63l-23.64 0 0 -91.24 23.64 0 0 91.24zm19.45 -91.24l42.39 0c12.79,0 21.93,2.57 27.41,7.73 5.48,5.17 8.22,13.74 8.22,25.71l0 57.8 -22.49 0 0 -54.86c0,-6.81 -1,-11.22 -2.97,-13.27 -1.97,-2.02 -5.96,-3.03 -11.92,-3.03l-18.13 0 0 71.16 -22.51 0 0 -91.24zm88.74 0l15.86 0 0 -33.07 22.51 0 0 33.07 23.79 0 0 18.17 -23.79 0 0 36.88c0,6.75 1.08,11.45 3.23,14.08 2.16,2.63 5.94,3.92 11.31,3.92l9.26 0 0 18.18 -20.56 0c-8.31,0 -14.67,-2.45 -19.1,-7.38 -4.43,-4.94 -6.64,-12.01 -6.64,-21.18l0 -44.5 -15.86 0 0 -18.17zm239.45 40.16c-3.86,18.15 -10.63,31.57 -20.32,40.29 -9.71,8.68 -22.8,13.04 -39.28,13.04 -13.14,0 -23.47,-3.03 -31.05,-9.12 -7.55,-6.09 -11.33,-14.37 -11.33,-24.85 0,-6.26 1.3,-11.8 3.91,-16.65 2.62,-4.85 6.53,-9 11.74,-12.43 -5.21,-3.43 -9.15,-7.74 -11.82,-12.93 -2.67,-5.19 -3.99,-11.08 -3.99,-17.69 0,-10.3 3.07,-18.38 9.25,-24.18 6.18,-5.8 14.81,-8.72 25.9,-8.72l39.15 0 0 23.03 -32.99 0c-5.32,0 -9.56,1.27 -12.68,3.83 -3.11,2.57 -4.67,5.98 -4.67,10.19 0,4.73 1.3,8.39 3.86,10.99 2.57,2.6 6.18,3.9 10.9,3.9l7.9 0 0 21.29 -7.6 0c-4.15,0 -7.53,1.33 -10.09,4.02 -2.56,2.68 -3.83,6.26 -3.83,10.73 0,4.97 1.7,8.95 5.1,11.92 3.4,3 7.98,4.5 13.73,4.5 8.74,0 15.78,-2.57 21.14,-7.68 5.35,-5.11 9.18,-12.93 11.5,-23.49l-16.35 0 0 -21.29 56.33 0 0 21.29 -14.4 0zm114.33 -20.43l0 51.94 13.76 0c9.15,0 15.6,-2.05 19.4,-6.17 3.81,-4.1 5.7,-10.94 5.7,-20.52 0,-9.23 -1.76,-15.75 -5.23,-19.53 -3.48,-3.81 -9.53,-5.71 -18.1,-5.71l-15.52 0zm-22.5 -19.74l43.38 0c13.09,0 23.28,4.12 30.62,12.35 7.31,8.23 10.99,19.71 10.99,34.43 0,6.03 -0.75,11.57 -2.29,16.59 -1.54,5.05 -3.86,9.67 -6.96,13.85 -3.7,4.99 -8.12,8.6 -13.27,10.76 -5.18,2.16 -12.04,3.26 -20.56,3.26l-19.4 0 0 33.07 -22.5 0 0 -124.31zm130.39 72.89l28.23 0 0 -18.87 -26.55 0c-5.29,0 -8.91,0.75 -10.93,2.28 -2,1.53 -2.99,4.19 -2.99,7.97 0,3.2 0.81,5.45 2.41,6.73 1.62,1.27 4.91,1.9 9.84,1.9zm-29.89 -72.89l46.1 0c11.63,0 20.4,2.86 26.31,8.57 5.91,5.75 8.85,14.23 8.85,25.51l0 57.16 -60.55 0c-8.47,0 -15,-2.28 -19.56,-6.84 -4.56,-4.59 -6.83,-11.05 -6.83,-19.48 0,-10.36 2.61,-17.81 7.85,-22.31 5.26,-4.53 13.95,-6.78 26.15,-6.78l29.62 0 0 -2.28c0,-5.39 -1.49,-9.2 -4.45,-11.4 -2.99,-2.19 -8.28,-3.29 -15.95,-3.29l-37.55 0 0 -18.87zm147.47 71.67l23.93 0 0 19.56 -30.57 0c-7.75,0 -14.08,-0.87 -19.08,-2.57 -4.96,-1.73 -9.3,-4.5 -13.01,-8.34 -3.94,-4.18 -7.04,-9.26 -9.28,-15.26 -2.24,-6 -3.34,-12.35 -3.34,-19.08 0,-7.04 1.11,-13.62 3.32,-19.74 2.21,-6.11 5.31,-11.22 9.3,-15.35 3.75,-3.84 8.15,-6.61 13.17,-8.34 5.02,-1.71 11.34,-2.57 18.92,-2.57l30.57 0 0 19.74 -23.93 0c-10.58,0 -17.86,1.96 -21.88,5.86 -3.99,3.92 -5.99,10.73 -5.99,20.4 0,5.57 0.81,10.19 2.45,13.85 1.62,3.67 4.16,6.64 7.58,8.89 1.68,1.06 3.64,1.82 5.88,2.28 2.24,0.43 6.2,0.67 11.95,0.67zm39.44 -104.74l22.5 0 0 76.87 36.21 -43.8 28.55 0 -39.53 44.64 39.53 46.6 -30.27 0 -34.48 -44.32 0 44.32 -22.5 0 0 -124.31z"/>
  <g id="_1342912515280">
   <path class="fil3" d="M800.56 521.35l196.56 -396.97c36.79,-74.31 141.72,-118.66 233.18,-101.87 159.71,29.3 223.88,152.49 210.12,266.49 -17.92,148.36 -129.83,227.93 -249.51,227.91 -87.51,-0.01 -158.76,-53.77 -201.08,-118.66 -43.69,72.74 -109.94,108.62 -189.27,123.1zm409.05 -385.16c72.85,6.29 126.8,70.44 120.52,143.29 -6.29,72.85 -70.44,126.81 -143.29,120.53 -72.86,-6.29 -126.81,-70.44 -120.53,-143.3 6.29,-72.85 70.44,-126.81 143.3,-120.52zm-273.85 32.23l49.7 -102.46c-130.83,-99.94 -327.31,-52.67 -380.39,122.39 -48.55,160.19 39.26,257.3 163.37,315.83l50.7 -107.82c-88.54,-15.45 -129.71,-101.12 -104.29,-180.02 27.15,-84.23 141.86,-116.07 220.91,-47.93z"/>
   <path class="fil4" d="M792.72 507.06l196.56 -396.97c36.79,-74.31 141.72,-118.66 233.19,-101.87 159.71,29.3 223.88,152.49 210.11,266.49 -17.92,148.36 -129.83,227.93 -249.51,227.91 -87.51,-0.01 -158.75,-53.77 -201.08,-118.66 -43.69,72.74 -109.94,108.62 -189.27,123.1zm409.05 -385.16c72.85,6.29 126.81,70.44 120.52,143.3 -6.29,72.85 -70.44,126.81 -143.29,120.52 -72.85,-6.29 -126.81,-70.44 -120.53,-143.3 6.29,-72.85 70.44,-126.81 143.3,-120.52zm-273.84 32.23l49.69 -102.46c-130.83,-99.94 -327.31,-52.68 -380.38,122.39 -48.56,160.19 39.25,257.3 163.37,315.84l50.7 -107.83c-88.54,-15.45 -129.71,-101.12 -104.29,-180.02 27.15,-84.23 141.86,-116.07 220.91,-47.93z"/>
   <circle class="fil5" cx="1197.65" cy="269.27" r="71.54"/>
   <circle class="fil6" cx="1190.12" cy="256.09" r="71.54"/>
  </g>
 </g>
</svg>
