<?xml version="1.0" encoding="UTF-8"?>
<svg id="Layer_1" data-name="Layer 1" xmlns="http://www.w3.org/2000/svg" viewBox="0 0 81.64 49.02">
  <path d="M25.04.1c1.92.22,12.21,3.62,12.37,5.51l-4.49,8.84C13.9,2.57.47,29.65,21.2,37.03l-4.59,10.08C-1.94,41.42-5.73,17.12,9.2,5.13,11.99,2.89,17.18.51,20.72.1c1.1-.13,3.22-.13,4.32,0Z"/>
  <path d="M37.53,37.5c-2.85,6.17-10.68,10.17-17.11,11.45-.76.15-.72.12-.65-.65L39.92,8.49C51.76-5.76,76.87.39,80.97,18.3c5.09,22.22-20.15,39.68-37.95,24.49-1.67-1.43-2.9-3.34-4.34-4.78-.39-.4-.43-.69-1.16-.51ZM67.59,16.09c-9.84-11.43-28.12,2.13-20.46,14.82,9.1,15.09,32.52-.81,20.46-14.82Z"/>
  <path d="M56.79,18.15c12.05-2.17,10.16,17.47-1.51,12.79-6.3-2.53-4.65-11.68,1.51-12.79Z"/>
</svg>